<?xml version="1.0" encoding="utf-8"?>
<svg version="1.0" id="espace-aubade" xmlns="http://www.w3.org/2000/svg" xmlns:xlink="http://www.w3.org/1999/xlink" x="0px"
	 y="0px" viewBox="0 0 285 100" style="enable-background:new 0 0 285 100;" xml:space="preserve">
<style type="text/css">
	.st0{fill:#FFFFFF;}
	.st1{fill:#004681;}
	.st2{fill:#00ABE9;}
</style>
<g>
	<path class="st0" d="M244.7,57.4"/>
</g>
<g>
	<path class="st1" d="M34.9,41.7h-9.3l4.8-14.4L34.9,41.7z M6,59h13.6l2.3-7h16.4l2.2,7h16.8l-19-52.5H25.7L6,59z"/>
	<path class="st1" d="M98.5,19.4v39.7H83.3v-5.6c-1.7,2.4-4.8,6.6-11.1,6.6c-4.5,0-8-2-10.1-5c-2.2-3.3-2.2-7.1-2.2-11.1V19.4h15
		v24.3c0,1.4,0,6,4,6c2.2,0,3.5-1.6,4.4-2.7V19.4H98.5z"/>
	<path class="st1" d="M120.5,30.2c1.3-0.9,2.5-1.6,4.2-1.6c3.4,0,6.2,3.6,6.2,10.4c0,5.4-1.9,10.2-6.1,10.2c-2,0-3.4-0.9-4.4-1.7
		L120.5,30.2L120.5,30.2z M105.4,59h15.1v-5.4c2.1,3,4.5,6.4,10.5,6.4c8.1,0,15.7-8.6,15.7-21.5c0-9.1-4.4-20.9-16.1-20.9
		c-6,0-8.9,3.8-10.2,5.6V6.5h-15.1L105.4,59C105.3,59,105.4,59,105.4,59z"/>
	<path class="st1" d="M172.3,47.9c-1.3,1.5-2.5,2.7-4.7,2.7c-2.5,0-3.8-2.1-3.8-4.3c0-2,1.2-4.9,5.2-4.9c1.3,0,2.1,0.2,3.3,0.5
		L172.3,47.9L172.3,47.9z M187.5,34.9c0-4.4-0.1-10.3-6.1-14.5c-1.2-0.9-4.5-3.2-11.7-3.2c-10.7,0-15.4,5.3-18.6,9.3l4.5,4.2
		c1.9-2.1,4.6-5.1,9.2-5.1c1,0,3.1,0.1,4.9,1.7c2.6,2.3,2.6,5.6,2.6,7.9c-2-0.7-4.8-1.7-8.8-1.7c-7.9,0-14.3,4.9-14.3,13.7
		c0,7.1,4.3,13.1,12,13.1c6.6,0,9.3-3.8,11.1-6.4v5.3h15.2L187.5,34.9L187.5,34.9z"/>
	<path class="st1" d="M218.1,47.5c-1.3,0.8-2.5,1.5-4.3,1.5c-4.2,0-6.3-4.4-6.3-9.9c0-7,2.8-10.7,6.4-10.7c1.9,0,3,0.8,4.2,1.6
		L218.1,47.5L218.1,47.5z M218.1,23.2c-1.6-2.2-4.2-5.7-10.6-5.7c-10.3,0-15.6,10.3-15.6,21.8c0,11.3,5.4,20.9,15.4,20.9
		c6.7,0,9.5-4.2,10.9-6.4V59h15.2V6.6h-15.2V23.2z"/>
	<path class="st1" d="M253.2,34.3c0.3-2.7,1-8,5.4-8c4.8,0,5.1,5.5,5.2,8H253.2z M269,49.7c-1.5,1-3.4,1.7-5.7,1.7
		c-2.2,0-4.2-0.5-6.1-2c-2.6-2-3.1-4.6-3.4-6.9h24.6c0-5.1,0-15.8-8.7-21.8c-2.6-1.8-6.3-3.3-11.3-3.3c-11.9,0-19.7,9-19.7,21.5
		c0,12.4,7.7,21.3,20.5,21.3c6.9,0,11.6-3.1,14.4-5.9"/>
	<path class="st1" d="M53.4,6.8v2h-3.7v1.4h3v1.8h-3v1.6h4.2v2l-7.5,0.1V6.8L53.4,6.8z"/>
	<path class="st1" d="M56,12.8c0.4,0.5,1,1.2,2.3,1.2c0.9,0,1.5-0.4,1.5-0.9c0-0.5-0.5-0.7-0.8-0.8c-0.3-0.1-1.7-0.4-2-0.5
		c-0.4-0.1-2-0.6-2-2.4c0-1.3,1-2.9,3.9-2.9c2.6,0,3.4,1,3.9,1.8l-1.3,0.8c-0.3-0.4-0.8-0.9-1.9-0.9c-0.9,0-1.4,0.4-1.4,0.9
		c0,0.3,0.2,0.5,0.4,0.6c0.3,0.2,2,0.5,2.4,0.6c0.4,0.1,2,0.6,2,2.3s-1.7,3.1-4.4,3.1c-2.8,0-3.7-1.5-4-2.1L56,12.8z"/>
	<path class="st1" d="M67.8,8.6c0.7,0,1,0.1,1.3,0.2c0.6,0.2,0.7,0.7,0.7,1c0,0.5-0.2,0.9-0.7,1.1c-0.4,0.2-0.9,0.2-1.4,0.2V8.6z
		 M64.4,15.5h3.4v-3.2c1.7,0,2.9,0,3.9-0.5c1.1-0.5,1.5-1.4,1.5-2.3c0-0.4-0.1-1.3-0.9-2c-0.9-0.7-1.9-0.7-2.7-0.7h-5.2
		C64.4,6.8,64.4,15.5,64.4,15.5z"/>
	<path class="st1" d="M77.5,12.6h-1.9l0.9-2.5L77.5,12.6z M71.9,15.5h2.7l0.5-1.2h3.2l0.4,1.2H82l-3.8-8.7h-2.5L71.9,15.5z"/>
	<path class="st1" d="M91.2,13.8c-0.4,0.5-1.6,2-4.4,2c-3.3,0-4.9-2.2-4.9-4.5c0-2.1,1.5-4.8,5.2-4.8c2.3,0,3.4,1.1,4,1.9l-1.3,0.9
		c-0.4-0.4-0.9-1-2-1c-1.8,0-2.5,1.5-2.5,2.7c0,1.7,1.1,2.7,2.5,2.7c1.1,0,1.9-0.7,2.2-1L91.2,13.8z"/>
	<path class="st1" d="M99.3,6.7v2h-3.7v1.4h3v1.8h-3v1.6h4.2v2h-7.5V6.7L99.3,6.7z"/>
</g>
<path class="st2" d="M279.3,84.7c-32.5,8.4-67.8,10.2-103.3,7.8c-24.5-1.9-48-6.3-72.5-8.1C70.4,82.7,37.7,86.1,6.3,92V64.1h273
	V84.7z"/>
<path class="st0" d="M12.5,76.5c0.2,0.3,0.4,0.7,0.7,1c0.6,0.5,1.4,0.8,2.3,0.8c1.4,0,2.1-0.8,2.1-1.5c0-1-0.9-1.3-2.1-1.5
	c-1.1-0.2-3.2-0.6-3.2-2.7c0-1,0.6-2.8,3.8-2.8c0.4,0,1.7,0,2.6,0.8c0.6,0.5,0.7,1.2,0.7,1.5l-0.6,0.2c-0.1-0.3-0.2-0.5-0.5-0.7
	c-0.4-0.4-1.1-0.7-2-0.7c-1.1,0-2.1,0.4-2.1,1.4c0,0.1,0,0.3,0.1,0.4c0.3,0.7,1,0.8,2.1,1c0.7,0.2,1.7,0.4,2.3,0.9
	c0.5,0.4,0.8,1,0.8,1.7c0,0.8-0.4,1.5-0.9,2c-1.1,1-2.7,1-3.1,1c-0.5,0-1.9,0-2.8-0.9c-0.7-0.6-0.8-1.4-0.9-1.8L12.5,76.5z"/>
<path class="st0" d="M26.2,75.9h-2.9l1.4-3L26.2,75.9z M20,79.1h1.7l1-2h4.1l1,2H30L25.5,70h-0.7L20,79.1z"/>
<path class="st0" d="M30.9,70h1.8l5,5.1c0.2,0.2,0.2,0.2,0.4,0.4V70h1.6v9.2h-0.5l-6.7-6.8v6.7h-1.6V70z"/>
<path class="st0" d="M42,70h2v9.1h-2V70z"/>
<path class="st0" d="M44.9,70h7.9v1.3h-3v7.8h-2v-7.8h-3L44.9,70L44.9,70z"/>
<path class="st0" d="M57.5,75.9h-2.9l1.4-3L57.5,75.9z M51.3,79.1h1.7l1-2h4.1l1,2h2.1L56.7,70H56L51.3,79.1z"/>
<path class="st0" d="M62.2,70h2v9.1h-2V70z"/>
<path class="st0" d="M68.6,71.3c0.3,0,0.5,0,0.8,0c0.4,0,0.9,0,1.3,0.2c0.7,0.3,0.8,1,0.8,1.2c0,0.9-0.7,1.3-1.2,1.5
	c-0.5,0.2-1.1,0.2-1.6,0.2C68.6,74.4,68.6,71.3,68.6,71.3z M66.6,79.1h2v-4c0.5,0.1,0.7,0.1,1.1,0.1l2.5,3.9h2.2l-2.8-4.3
	c0.4-0.2,0.9-0.4,1.3-1s0.4-1,0.4-1.4c0-0.7-0.3-1.5-1-2c-0.6-0.3-1.3-0.4-2.3-0.4h-3.5V79.1z"/>
<path class="st0" d="M75.6,70h6.2v1.3h-4.2v2.5h3.7V75h-3.7v2.8h4.8v1.3h-6.8L75.6,70C75.7,70,75.6,70,75.6,70z"/>
<path class="st0" d="M89.1,76.2c-1.1,0-1.9-0.8-1.9-1.7s0.8-1.7,1.9-1.7c1,0,1.8,0.7,1.8,1.7C90.9,75.5,90.2,76.2,89.1,76.2z"/>
<path class="st0" d="M104.9,77.1c-0.1,0.3-0.3,0.9-0.9,1.4c-1,0.9-2.3,0.9-2.9,0.9c-2.1,0-3.1-0.8-3.6-1.2c-1.4-1.2-1.5-2.7-1.5-3.6
	c0-3,2.2-4.9,5.1-4.9c1.1,0,2.2,0.2,3,0.9c0.6,0.5,0.7,1,0.8,1.4l-0.5,0.2c-0.2-0.2-0.3-0.5-0.5-0.7c-0.4-0.4-1.1-0.7-2.1-0.7
	c-1.9,0-3.6,1.3-3.6,3.7c0,2,1.3,3.7,3.4,3.7c1.7,0,2.5-1,2.7-1.4L104.9,77.1z"/>
<path class="st0" d="M111.4,75.9h-2.9l1.4-3L111.4,75.9z M105.1,79.1h1.7l1-2h4.1l1,2h2.1l-4.5-9.1h-0.7L105.1,79.1z"/>
<path class="st0" d="M118,71.3c0.3,0,0.5,0,0.8,0c0.4,0,0.9,0,1.3,0.2c0.7,0.3,0.8,1,0.8,1.2c0,0.9-0.7,1.3-1.2,1.5
	c-0.5,0.2-1.1,0.2-1.6,0.2V71.3z M116,79.1h2v-4c0.5,0.1,0.7,0.1,1.1,0.1l2.5,3.9h2.2l-2.8-4.3c0.4-0.2,0.9-0.4,1.3-1
	c0.4-0.5,0.4-1,0.4-1.4c0-0.7-0.3-1.5-1.1-2c-0.6-0.3-1.3-0.4-2.3-0.4h-3.5L116,79.1L116,79.1z"/>
<path class="st0" d="M127.1,71.3c0.3,0,0.5,0,0.8,0c0.4,0,0.9,0,1.3,0.2c0.7,0.3,0.8,1,0.8,1.2c0,0.9-0.7,1.3-1.2,1.5
	c-0.5,0.2-1.1,0.2-1.6,0.2V71.3z M125,79.1h2v-4c0.5,0.1,0.7,0.1,1.1,0.1l2.5,3.9h2.2l-2.8-4.3c0.4-0.2,0.9-0.4,1.3-1s0.4-1,0.4-1.4
	c0-0.7-0.3-1.5-1.1-2c-0.6-0.3-1.3-0.4-2.3-0.4H125L125,79.1L125,79.1z"/>
<path class="st0" d="M134.1,70h6.2v1.3h-4.2v2.5h3.7V75h-3.7v2.8h4.8v1.3h-6.8L134.1,70C134.2,70,134.1,70,134.1,70z"/>
<path class="st0" d="M142.3,70h2v7.8h4.5v1.3h-6.5V70L142.3,70z"/>
<path class="st0" d="M155.5,75.9h-2.9l1.4-3L155.5,75.9z M149.3,79.1h1.7l1-2h4.1l1,2h2.1l-4.5-9.1H154L149.3,79.1z"/>
<path class="st0" d="M168.7,78.5c-0.8,0.3-2.1,0.9-4,0.9c-2,0-3.1-0.8-3.7-1.3c-1-0.9-1.5-2.1-1.5-3.5c0-3.4,2.9-4.9,5.2-4.9
	c1.1,0,2.1,0.3,2.9,1c0.5,0.5,0.7,1,0.8,1.3l-0.5,0.2c-0.2-0.2-0.3-0.5-0.9-0.9c-0.5-0.3-1-0.4-1.6-0.4c-2.1,0-3.6,1.4-3.6,3.5
	c0,1.7,1,3.7,3.3,3.7c0.8,0,1.3-0.2,1.7-0.3v-2.1h-1.9v-1.3h3.8L168.7,78.5L168.7,78.5z"/>
<path class="st0" d="M170.7,70h6.2v1.3h-4.2v2.5h3.7V75h-3.7v2.8h4.8v1.3h-6.8L170.7,70C170.7,70,170.7,70,170.7,70z"/>
<path class="st0" d="M184.2,76.2c-1.1,0-1.9-0.8-1.9-1.7s0.8-1.7,1.9-1.7c1,0,1.8,0.7,1.8,1.7C185.9,75.5,185.3,76.2,184.2,76.2z"/>
<path class="st0" d="M199.9,77.1c-0.1,0.3-0.3,0.9-0.9,1.4c-1,0.9-2.3,0.9-2.9,0.9c-2.1,0-3.1-0.8-3.6-1.2c-1.4-1.2-1.5-2.7-1.5-3.6
	c0-3,2.2-4.9,5.1-4.9c1.1,0,2.2,0.2,3,0.9c0.6,0.5,0.7,1,0.8,1.4l-0.5,0.2c-0.2-0.2-0.3-0.5-0.5-0.7c-0.4-0.4-1.1-0.7-2.1-0.7
	c-1.9,0-3.6,1.3-3.6,3.7c0,2,1.3,3.7,3.4,3.7c1.7,0,2.5-1,2.7-1.4L199.9,77.1z"/>
<path class="st0" d="M201.4,70h2v3.7h4.2V70h2v9.1h-2V75h-4.2v4.1h-2V70z"/>
<path class="st0" d="M216.6,75.9h-2.9l1.4-3L216.6,75.9z M210.4,79.1h1.7l1-2h4.1l1,2h2.1l-4.5-9.1h-0.7L210.4,79.1z"/>
<path class="st0" d="M221.2,70h2v5.7c0,0.8,0.2,1.2,0.3,1.4c0.3,0.7,0.9,1,1.7,1c1.1,0,1.9-0.7,2.2-1v-7.2h2V79h-2v-1.1
	c-0.3,0.3-0.6,0.7-1,0.9c-0.7,0.4-1.5,0.4-1.9,0.4c-1,0-1.9-0.3-2.4-0.8c-0.6-0.5-0.9-1.3-0.9-3L221.2,70L221.2,70L221.2,70z"/>
<path class="st0" d="M231.8,70h6.2v1.3h-4.2v2.5h3.6V75h-3.6v4.1h-2L231.8,70L231.8,70z"/>
<path class="st0" d="M239.1,70h6.2v1.3h-4.2v2.5h3.6V75h-3.6v4.1h-2L239.1,70L239.1,70z"/>
<path class="st0" d="M250.5,75.9h-2.9l1.4-3L250.5,75.9z M244.2,79.1h1.7l1-2h4.1l1,2h2.1l-4.5-9.1h-0.7L244.2,79.1z"/>
<path class="st0" d="M263.6,78.5c-0.8,0.3-2.1,0.9-4,0.9c-2,0-3.1-0.8-3.7-1.3c-1-0.9-1.5-2.1-1.5-3.5c0-3.4,2.9-4.9,5.2-4.9
	c1,0,2.1,0.3,2.9,1c0.5,0.5,0.7,1,0.8,1.3l-0.5,0.2c-0.2-0.2-0.3-0.5-0.9-0.9c-0.5-0.3-1-0.4-1.6-0.4c-2.1,0-3.6,1.4-3.6,3.5
	c0,1.7,1,3.7,3.3,3.7c0.8,0,1.3-0.2,1.7-0.3v-2.1h-1.9v-1.3h3.8V78.5L263.6,78.5z"/>
<path class="st0" d="M265.6,70h6.2v1.3h-4.2v2.5h3.7V75h-3.7v2.8h4.8v1.3h-6.8V70z"/>
</svg>
