<?xml version="1.0" encoding="UTF-8"?>
<svg width="198" height="50" viewBox="0 0 198 50" fill="none" xmlns="http://www.w3.org/2000/svg">
    <path d="M18.1055 14.1307C16.985 14.6499 15.9887 15.4014 15.1833 16.3351C14.2921 17.3879 13.6062 18.5974 13.1608 19.9011C12.6247 21.4688 12.3639 23.1168 12.39 24.7727C12.3633 26.4163 12.6157 28.0525 13.1367 29.6122C13.5748 30.9125 14.2524 32.1201 15.135 33.1729C15.9317 34.1089 16.9234 34.8611 18.0411 35.3773C19.1423 35.8802 20.3401 36.1385 21.5515 36.1344C24.2141 36.1344 26.2822 35.3996 27.7559 33.93V23.8792H21.1272V27.0199H24.2804V32.0493C23.6519 32.5095 22.796 32.7387 21.7127 32.7369C20.9628 32.7403 20.224 32.5564 19.564 32.2018C18.8609 31.8153 18.2513 31.2802 17.7779 30.6341C17.2346 29.8896 16.8272 29.0556 16.5746 28.1703C16.2595 27.102 16.1047 25.9931 16.1153 24.8797C16.0962 23.7099 16.2491 22.5437 16.5692 21.418C16.8267 20.5099 17.2511 19.6572 17.8208 18.9033C18.315 18.2541 18.9602 17.7344 19.701 17.3891C20.4291 17.0543 21.2223 16.8835 22.0242 16.8888C22.8225 16.8854 23.6149 17.0249 24.3636 17.3008C25.0441 17.5474 25.6882 17.8839 26.2787 18.3013L26.9286 14.9252C26.2368 14.4365 25.4692 14.0642 24.6564 13.823C23.64 13.5141 22.5818 13.3634 21.5193 13.3763C20.3396 13.3779 19.1745 13.6363 18.1055 14.1333" fill="white"/>
    <path d="M54.9128 29.3392H53.5V36.0166H54.9128V29.3392Z" fill="#6BA43A"/>
    <path d="M56.7605 36.0166V29.3285H58.4123L59.7123 31.7763C60.0979 32.5182 60.4396 33.282 60.7356 34.0637H60.7544C60.6711 33.1835 60.6416 32.2819 60.6416 31.2707V29.3285H61.9415V36.0166H60.4562L59.1133 33.4403C58.7112 32.6753 58.3526 31.8885 58.039 31.0834H58.0014C58.047 31.9743 58.0658 32.916 58.0658 34.0048V36.0166H56.7605Z" fill="#6BA43A"/>
    <path d="M63.8377 34.4622C64.3189 34.7255 64.8574 34.8678 65.4063 34.8769C66.0563 34.8769 66.4001 34.5906 66.4001 34.1545C66.4001 33.7185 66.1019 33.5018 65.3499 33.2236C64.3105 32.8276 63.6229 32.2123 63.6229 31.2412C63.6229 30.1016 64.5253 29.2401 65.9918 29.2401C66.5483 29.2229 67.1008 29.3385 67.6034 29.5772L67.2864 30.7864C66.8857 30.5761 66.4394 30.4668 65.9865 30.4681C65.3741 30.4681 65.0759 30.7757 65.0759 31.1128C65.0759 31.5382 65.4197 31.7281 66.2362 32.0545C67.3428 32.4905 67.8478 33.1032 67.8478 34.0449C67.8478 35.1658 67.042 36.1155 65.3311 36.1155C64.7156 36.1192 64.1079 35.9771 63.5584 35.7008L63.8377 34.4622Z" fill="#6BA43A"/>
    <path d="M70.6438 30.6073H68.9544V29.3392H73.7648V30.6073H72.0565V36.0166H70.6438V30.6073Z" fill="#6BA43A"/>
    <path d="M75.9298 34.3044L75.484 36.0166H74.0255L75.9298 29.3285H77.7857L79.7357 36.0166H78.2048L77.7213 34.3044H75.9298ZM77.5172 33.1728L77.1277 31.7576C77.0149 31.3617 76.9048 30.8641 76.8108 30.4681H76.792C76.7007 30.8641 76.6067 31.3697 76.5046 31.7576L76.1339 33.1728H77.5172Z" fill="#6BA43A"/>
    <path d="M81.1941 29.3392H82.6069V34.7485H85.0967V36.0166H81.1941V29.3392Z" fill="#6BA43A"/>
    <path d="M86.563 29.3392H87.9758V34.7485H90.4629V36.0166H86.563V29.3392Z" fill="#6BA43A"/>
    <path d="M93.4361 34.3044L92.9902 36.0166H91.5318L93.4361 29.3285H95.292L97.242 36.0166H95.711L95.2276 34.3044H93.4361ZM95.0235 33.1728L94.634 31.7576C94.5212 31.3617 94.4111 30.8641 94.3171 30.4681H94.2983C94.2069 30.8641 94.1129 31.3697 94.0109 31.7576L93.6402 33.1728H95.0235Z" fill="#6BA43A"/>
    <path d="M99.1384 30.6073H97.449V29.3392H102.259V30.6073H100.551V36.0166H99.1384V30.6073Z" fill="#6BA43A"/>
    <path d="M105.055 29.3392H103.642V36.0166H105.055V29.3392Z" fill="#6BA43A"/>
    <path d="M112.632 32.6084C112.632 34.8074 111.397 36.1263 109.56 36.1263C107.723 36.1263 106.605 34.6309 106.605 32.7181C106.605 30.717 107.814 29.2216 109.651 29.2216C111.574 29.2216 112.624 30.7571 112.624 32.6084H112.632ZM108.101 32.6887C108.101 34.0075 108.679 34.9278 109.624 34.9278C110.57 34.9278 111.128 33.9567 111.128 32.6592C111.128 31.45 110.591 30.4201 109.624 30.4201C108.657 30.4201 108.101 31.3912 108.101 32.6887Z" fill="#6BA43A"/>
    <path d="M114.184 36.0166V29.3285H115.836L117.136 31.7763C117.52 32.5188 117.861 33.2825 118.157 34.0637H118.178C118.095 33.1835 118.068 32.2819 118.068 31.2707V29.3285H119.368V36.0166H117.883L116.54 33.4403C116.133 32.6756 115.77 31.8887 115.452 31.0834H115.415C115.463 31.9743 115.482 32.916 115.482 34.0048V36.0166H114.184Z" fill="#6BA43A"/>
    <path d="M125.812 32.916H123.378V33.9166H125.812V32.916Z" fill="#6BA43A"/>
    <path d="M135.116 33.4616C135.089 32.659 135.062 31.6879 135.062 30.7168H135.043C134.839 31.5676 134.578 32.5199 134.337 33.3011L133.577 35.9068H132.47L131.801 33.3332C131.597 32.5306 131.393 31.589 131.235 30.7168H131.216C131.189 31.6184 131.151 32.6483 131.114 33.4803L130.993 36.0165H129.685L130.082 29.3284H131.962L132.577 31.5569C132.779 32.33 132.967 33.162 133.115 33.9458H133.15C133.319 33.1727 133.531 32.2925 133.746 31.5381L134.404 29.3177H136.262L136.596 36.0058H135.223L135.116 33.4616Z" fill="#6BA43A"/>
    <path d="M139.733 34.3044L139.287 36.0166H137.828L139.733 29.3285H141.591L143.541 36.0166H142.008L141.524 34.3044H139.733ZM141.32 33.1728L140.931 31.7576C140.821 31.3617 140.708 30.8641 140.616 30.4681H140.598C140.504 30.8641 140.41 31.3697 140.308 31.7576L139.934 33.1728H141.32Z" fill="#6BA43A"/>
    <path d="M146.413 29.3392H145V36.0166H146.413V29.3392Z" fill="#6BA43A"/>
    <path d="M148.26 36.0166V29.3285H149.915L151.215 31.7763C151.598 32.5188 151.939 33.2825 152.235 34.0637H152.254C152.171 33.1835 152.144 32.2819 152.144 31.2707V29.3285H153.444V36.0166H151.956L150.613 33.4403C150.211 32.6753 149.852 31.8884 149.539 31.0834H149.501C149.547 31.9743 149.566 32.916 149.566 34.0048V36.0166H148.26Z" fill="#6BA43A"/>
    <path d="M156.506 30.6073H154.817V29.3392H159.627V30.6073H157.919V36.0166H156.506V30.6073Z" fill="#6BA43A"/>
    <path d="M164.725 33.1942H162.423V34.778H164.993V36.0166H161.01V29.3392H164.864V30.5779H162.423V31.9663H164.725V33.1942Z" fill="#6BA43A"/>
    <path d="M166.583 36.0166V29.3285H168.235L169.535 31.7763C169.919 32.5193 170.26 33.2829 170.558 34.0637H170.575C170.491 33.1835 170.464 32.2819 170.464 31.2707V29.3285H171.764V36.0166H170.284L168.942 33.4403C168.541 32.6748 168.182 31.888 167.867 31.0834H167.832C167.878 31.9743 167.897 32.916 167.897 34.0048V36.0166H166.583Z" fill="#6BA43A"/>
    <path d="M175.071 34.3044L174.625 36.0166H173.166L175.071 29.3285H176.929L178.879 36.0166H177.346L176.862 34.3044H175.071ZM176.658 33.1728L176.269 31.7576C176.158 31.3617 176.046 30.8641 175.954 30.4681H175.925C175.831 30.8641 175.737 31.3697 175.635 31.7576L175.275 33.1728H176.658Z" fill="#6BA43A"/>
    <path d="M180.327 36.0166V29.3285H181.981L183.281 31.7763C183.665 32.5188 184.006 33.2825 184.302 34.0637H184.321C184.238 33.1835 184.211 32.2819 184.211 31.2707V29.3285H185.511V36.0166H184.023L182.68 33.4403C182.279 32.6748 181.92 31.888 181.605 31.0834H181.565C181.611 31.9743 181.63 32.916 181.63 34.0048V36.0166H180.327Z" fill="#6BA43A"/>
    <path d="M191.946 35.8482C191.438 36.0468 190.893 36.1379 190.348 36.1157C188.186 36.1157 187.071 34.6684 187.071 32.7663C187.071 30.487 188.594 29.2297 190.488 29.2297C191.018 29.206 191.546 29.3078 192.029 29.5266L191.731 30.7171C191.359 30.5476 190.953 30.4626 190.544 30.4683C189.429 30.4683 188.556 31.1906 188.556 32.678C188.556 34.0157 189.298 34.8584 190.552 34.8584C190.959 34.8618 191.363 34.7873 191.742 34.639L191.946 35.8482Z" fill="#6BA43A"/>
    <path d="M197.229 33.1942H194.927V34.778H197.5V36.0166H193.515V29.3392H197.369V30.5779H194.927V31.9663H197.229V33.1942Z" fill="#6BA43A"/>
    <path d="M55.3613 18.9782V15.7278C55.6248 15.6638 55.896 15.6368 56.1671 15.6475C57.1716 15.6475 57.7356 16.2521 57.7356 17.2526C57.7356 18.3629 57.083 19.0344 56.022 19.0344C55.7979 19.0445 55.5735 19.022 55.3559 18.9675L55.3613 18.9782ZM53.3818 13.9701V24.8316H55.3559V20.891C55.579 20.94 55.8072 20.9615 56.0355 20.9552C57.2119 20.9552 58.2191 20.578 58.8986 19.7941C59.4358 19.1922 59.7044 18.2612 59.7044 17.1831C59.7238 16.7174 59.6507 16.2525 59.4894 15.815C59.3281 15.3775 59.0817 14.9761 58.7643 14.6336C58.1734 14.0451 57.2978 13.7535 56.0784 13.7535C55.1777 13.7368 54.2776 13.813 53.3926 13.9808" fill="white"/>
    <path d="M62.957 15.6956C63.2526 15.6266 63.5564 15.5996 63.8595 15.6153C64.7727 15.6153 65.3233 16.1503 65.3233 17.1321C65.3233 18.114 64.7297 18.7266 63.7413 18.7266H62.957V15.6956ZM60.9829 13.9807V24.8422H62.957V20.5136H63.5452C64.3698 20.5297 64.7485 20.8908 64.9956 22.2793C65.1335 23.147 65.3346 24.0035 65.5973 24.8422H67.6385C67.4666 24.4168 67.2061 22.9695 66.9321 21.7228C66.7092 20.7089 66.3681 19.992 65.753 19.6816V19.6308C66.5131 19.2884 67.3108 18.3253 67.3108 16.9369C67.3108 15.9256 67.0235 15.1418 66.4863 14.6174C65.8578 13.9968 64.9446 13.7533 63.6366 13.7533C62.7467 13.7443 61.8581 13.8205 60.9829 13.9807Z" fill="white"/>
    <path d="M70.37 19.3554C70.37 17.2152 71.1543 15.6101 72.5187 15.6101C73.8831 15.6101 74.6352 17.3062 74.6352 19.2992C74.6352 21.4394 73.8643 23.0445 72.5187 23.0445C71.1731 23.0445 70.37 21.5277 70.37 19.3554ZM68.267 19.4035C68.267 22.555 69.8087 25.0215 72.4113 25.0215C75.0139 25.0215 76.7382 22.8492 76.7382 19.2243C76.7382 16.1692 75.261 13.6384 72.5536 13.6384C69.9671 13.6384 68.2562 16.105 68.2562 19.4035" fill="white"/>
    <path d="M78.0677 13.8336V24.8422H80.0553V20.4147H83.2192V18.3922H80.0553V15.8748H83.4422V13.8336H78.0677Z" fill="white"/>
    <path d="M84.957 13.8336V24.8422H90.5678V22.801H86.9446V20.1873H90.1891V18.1621H86.9446V15.8748H90.3825V13.8336H84.957Z" fill="white"/>
    <path d="M91.6903 16.969C91.6903 18.5741 92.6572 19.5827 94.1237 20.2354C95.1819 20.6929 95.6009 21.0861 95.6009 21.771C95.6009 22.4558 95.1148 22.9641 94.2016 22.9641C93.4154 22.9436 92.6503 22.7066 91.9911 22.2793L91.5882 24.3205C92.3425 24.7716 93.2063 25.0085 94.0861 25.0053C96.5034 25.0053 97.6288 23.4377 97.6288 21.5917C97.6288 20.0401 96.909 19.0289 95.3538 18.3092C94.2043 17.7742 93.7208 17.4612 93.7208 16.7576C93.7208 16.2012 94.1371 15.6875 95.002 15.6875C95.6486 15.6883 96.2821 15.869 96.8311 16.2092L97.2769 14.2188C96.592 13.8314 95.8134 13.6389 95.0262 13.6624C92.9607 13.6624 91.693 15.0829 91.693 16.9609" fill="white"/>
    <path d="M98.749 16.9691C98.749 18.5743 99.7186 19.5828 101.182 20.2356C102.241 20.693 102.66 21.0863 102.66 21.7712C102.66 22.456 102.176 22.9643 101.26 22.9643C100.474 22.9434 99.7092 22.7063 99.0498 22.2795L98.647 24.3207C99.4 24.7722 100.263 25.0091 101.142 25.0055C103.559 25.0055 104.685 23.4378 104.685 21.5919C104.685 20.0403 103.968 19.0291 102.41 18.3094C101.26 17.7744 100.777 17.4614 100.777 16.7578C100.777 16.2013 101.196 15.6877 102.058 15.6877C102.705 15.6885 103.338 15.8691 103.887 16.2094L104.333 14.219C103.649 13.8313 102.871 13.6388 102.085 13.6626C100.019 13.6626 98.749 15.0831 98.749 16.9611" fill="white"/>
    <path d="M108.045 13.8336H106.057V24.8422H108.045V13.8336Z" fill="white"/>
    <path d="M111.464 19.3554C111.464 17.2152 112.248 15.6101 113.613 15.6101C114.977 15.6101 115.729 17.3062 115.729 19.2992C115.729 21.4394 114.958 23.0445 113.613 23.0445C112.267 23.0445 111.464 21.5277 111.464 19.3554ZM109.361 19.4035C109.361 22.555 110.902 25.0215 113.505 25.0215C116.108 25.0215 117.832 22.8492 117.832 19.2243C117.832 16.1692 116.355 13.6384 113.647 13.6384C111.058 13.6384 109.35 16.105 109.35 19.4035" fill="white"/>
    <path d="M124.608 13.8336V17.0439C124.608 18.7106 124.649 20.1953 124.767 21.648H124.74C124.326 20.3668 123.845 19.1078 123.3 17.8759L121.471 13.8416H119.143V24.8422H120.974V21.5276C120.974 19.7298 120.948 18.1782 120.883 16.7122H120.934C121.353 17.9989 121.939 19.4195 122.476 20.5993L124.356 24.8449H126.448V13.8336H124.608Z" fill="white"/>
    <path d="M133.63 13.8336V17.0439C133.63 18.7106 133.668 20.1953 133.786 21.648H133.757C133.343 20.3669 132.863 19.1078 132.32 17.8759L130.488 13.8416H128.162V24.8422H129.996V21.5276C129.996 19.7298 129.972 18.1782 129.905 16.7122H129.959C130.378 18.0016 130.963 19.4222 131.487 20.5993L133.367 24.8449H135.46V13.8336H133.63Z" fill="white"/>
    <path d="M137.197 13.8336V24.8422H142.805V22.801H139.185V20.1873H142.427V18.1621H139.185V15.8748H142.623V13.8336H137.197Z" fill="white"/>
    <path d="M144.178 13.8336V24.8422H149.67V22.7502H146.165V13.8336H144.178Z" fill="white"/>
    <path d="M156.168 23.007C155.935 23.0174 155.703 23.0012 155.475 22.9588V15.7625C155.769 15.6884 156.073 15.6551 156.377 15.6635C158.101 15.6635 159.173 16.8727 159.173 19.1573C159.173 21.771 157.999 23.0123 156.202 23.0123H156.168V23.007ZM153.482 13.9968V24.794C154.23 24.91 154.986 24.9646 155.743 24.9572C157.468 24.9572 158.894 24.4997 159.823 23.534C160.658 22.6378 161.273 21.1825 161.273 19.0771C161.273 17.1322 160.699 15.7785 159.783 14.9278C158.947 14.1439 157.849 13.7534 156.162 13.7534C155.261 13.7487 154.362 13.8303 153.476 13.9968" fill="white"/>
    <path d="M167.789 13.8336V20.1552C167.789 22.1135 167.215 23.0284 166.178 23.0284C165.171 23.0284 164.583 22.0653 164.583 20.1552V13.8336H162.595V19.9866C162.595 23.4805 163.89 25.0321 166.113 25.0321C168.415 25.0321 169.788 23.427 169.788 20.0187V13.8336H167.789Z" fill="white"/>
    <path d="M173.736 19.4678C173.736 21.0729 174.182 22.5229 174.979 23.4806C175.777 24.4383 176.953 24.952 178.56 24.952C179.575 24.9306 180.577 24.7201 181.514 24.3313V18.5368H178.221V20.4817H179.58V22.8011C179.271 22.913 178.942 22.963 178.613 22.9482C176.978 22.9482 175.828 21.6106 175.828 19.3394C175.828 16.9316 177.096 15.7786 178.756 15.7786C179.467 15.7439 180.174 15.9079 180.797 16.2521L181.216 14.243C180.456 13.8701 179.616 13.6865 178.769 13.708C175.879 13.708 173.749 15.8 173.736 19.4571" fill="white"/>
    <path d="M185.919 17.8197C186.064 17.183 186.188 16.3483 186.325 15.6956H186.352C186.483 16.3483 186.639 17.167 186.797 17.8197L187.335 20.1552H185.387L185.919 17.8197ZM185.113 13.8336L182.428 24.8422H184.48L185.111 22.0171H187.633L188.312 24.8422H190.461L187.724 13.8336H185.113Z" fill="white"/>
    <path d="M191.54 13.8336V15.8909H195.36V15.9577L191.162 23.5019V24.8422H198V22.7849H193.829V22.718L197.936 15.2702V13.8336H191.54Z" fill="white"/>
    <path d="M40.3579 27.7206C39.9228 17.2149 34.9566 8.8388 34.8895 8.72644C34.8223 8.8388 29.8562 17.2149 29.421 27.7206C29.182 33.4883 29.7809 37.7393 30.3772 40.4145C30.594 41.4293 30.8757 42.4292 31.2206 43.4081C30.9424 40.3381 30.8527 37.2541 30.952 34.1732C31.182 27.6673 32.5095 21.2463 34.8787 15.1791C37.2478 21.2462 38.5744 27.6673 38.8028 34.1732C38.8673 36.3134 38.8458 38.2502 38.7733 39.9731C39.092 39.6164 39.4 39.2499 39.6972 38.8736C40.3204 35.1905 40.5419 31.4511 40.3579 27.7206Z" fill="white"/>
    <path d="M21.8793 0C17.5956 0.0022829 13.3838 1.09616 9.64447 3.17757C5.90512 5.25898 2.76259 8.2587 0.515834 11.8914H3.49178C5.23304 9.42574 7.45329 7.33316 10.0211 5.73754C12.5889 4.14193 15.452 3.07572 18.4409 2.60204C21.4298 2.12837 24.4838 2.25686 27.422 2.97991C30.3602 3.70296 33.1228 5.00587 35.5464 6.81149C37.9699 8.61711 40.0051 10.8887 41.5314 13.4918C43.0577 16.095 44.044 18.9767 44.4321 21.9663C44.8202 24.9559 44.602 27.9928 43.7906 30.8969C42.9792 33.8011 41.5909 36.5136 39.7081 38.8737C39.4127 39.2518 39.1047 39.6183 38.7842 39.9732C38.0146 40.8373 37.1805 41.6421 36.289 42.381C36.7319 40.2115 36.9328 37.9999 36.888 35.7865C36.8584 34.885 36.7886 33.9941 36.6919 33.1354C36.3013 30.3421 35.6988 27.5823 34.8897 24.8796C34.077 27.5841 33.4745 30.3468 33.0874 33.1434C32.9908 34.0021 32.9209 34.893 32.8887 35.7945C32.8081 38.1327 33.3211 41.8031 33.7777 44.1841C28.8266 47.2404 22.8818 48.2744 17.1837 47.0701C11.4857 45.8658 6.47468 42.5164 3.19634 37.7207H0.268734C2.50497 41.4891 5.69542 44.6066 9.52096 46.7614C13.3465 48.9162 17.673 50.0327 22.0678 49.9993C26.4625 49.9658 30.7714 48.7836 34.5635 46.5709C38.3555 44.3582 41.4978 41.1925 43.676 37.3905C45.8542 33.5886 46.9919 29.2835 46.9754 24.9061C46.9589 20.5287 45.7887 16.2323 43.582 12.4468C41.3752 8.66118 38.2091 5.51909 34.4005 3.33479C30.5918 1.1505 26.2742 0.000556515 21.8793 0V0Z" fill="#6BA43A"/>
    <path d="M3.60444 17.0252H5.55439C5.87591 17.0315 6.19266 17.1039 6.48476 17.2379C6.77687 17.3718 7.03803 17.5645 7.25186 17.8037C7.76039 18.3227 8.01465 19.1021 8.01465 20.1419C8.01465 21.1816 7.76039 21.9584 7.25186 22.472C7.03711 22.7122 6.77466 22.9054 6.48108 23.0394C6.18751 23.1734 5.86922 23.2453 5.54633 23.2505H3.60444V17.0252ZM0 13.7855V35.7598H3.60444V26.426H6.04322C6.77393 26.4275 7.49708 26.2786 8.16727 25.9886C8.83747 25.6985 9.44023 25.2737 9.93774 24.7406C10.4774 24.1578 10.9021 23.4789 11.1894 22.7395C11.5161 21.8932 11.6766 20.9923 11.6621 20.0857C11.6764 19.18 11.5159 18.28 11.1894 17.4345C10.9045 16.7011 10.4795 16.0297 9.93774 15.4576C9.43229 14.9283 8.82479 14.5061 8.15163 14.2162C7.48486 13.9305 6.76638 13.784 6.04053 13.7855H0Z" fill="white"/>
</svg>
